<svg width="156" height="19" viewBox="0 0 156 19" fill="none" xmlns="http://www.w3.org/2000/svg">
<path d="M8.504 18.384C6.984 18.384 5.68 18.128 4.592 17.616C3.52 17.104 2.648 16.424 1.976 15.576C1.304 14.712 0.808 13.76 0.488 12.72C0.168 11.68 0.00800008 10.64 0.00800008 9.6C0.00800008 8.592 0.176 7.576 0.512 6.552C0.864 5.512 1.384 4.56 2.072 3.696C2.776 2.832 3.648 2.136 4.688 1.608C5.744 1.08 6.976 0.816 8.384 0.816C9.856 0.816 11.12 1.08 12.176 1.608C13.248 2.136 14.128 2.84 14.816 3.72C15.504 4.584 16.016 5.528 16.352 6.552C16.704 7.576 16.88 8.592 16.88 9.6C16.88 10.592 16.704 11.608 16.352 12.648C16.016 13.672 15.496 14.624 14.792 15.504C14.104 16.368 13.24 17.064 12.2 17.592C11.16 18.12 9.928 18.384 8.504 18.384ZM8.624 17.136C9.552 17.136 10.352 16.928 11.024 16.512C11.712 16.096 12.272 15.544 12.704 14.856C13.152 14.152 13.48 13.384 13.688 12.552C13.896 11.704 14 10.864 14 10.032C14 9.008 13.88 8.024 13.64 7.08C13.4 6.12 13.032 5.264 12.536 4.512C12.056 3.744 11.456 3.144 10.736 2.712C10.016 2.264 9.184 2.04 8.24 2.04C7.312 2.04 6.504 2.256 5.816 2.688C5.128 3.12 4.568 3.688 4.136 4.392C3.704 5.08 3.376 5.848 3.152 6.696C2.944 7.528 2.84 8.368 2.84 9.216C2.84 10.048 2.952 10.928 3.176 11.856C3.4 12.784 3.744 13.648 4.208 14.448C4.672 15.248 5.264 15.896 5.984 16.392C6.72 16.888 7.6 17.136 8.624 17.136ZM31.9128 18.336L22.9848 6.48C22.8088 6.272 22.6408 6.056 22.4808 5.832C22.3208 5.608 22.1528 5.376 21.9768 5.136H21.9528L22.0248 14.472C22.0248 14.872 22.0168 15.272 22.0008 15.672C22.0008 16.072 21.9848 16.44 21.9528 16.776C22.2248 16.744 22.5208 16.728 22.8408 16.728C23.1768 16.712 23.4648 16.696 23.7048 16.68V18H18.9528V16.944C19.4008 16.944 19.7368 16.856 19.9608 16.68C20.2008 16.504 20.3608 16.272 20.4408 15.984C20.5368 15.696 20.5848 15.36 20.5848 14.976V4.224C20.5848 3.904 20.5848 3.584 20.5848 3.264C20.5848 2.944 20.5928 2.664 20.6088 2.424C20.3528 2.44 20.0648 2.456 19.7448 2.472C19.4408 2.488 19.1688 2.504 18.9288 2.52V1.2H22.0968L30.5448 12.312C30.8168 12.664 31.0568 12.992 31.2648 13.296C31.4888 13.6 31.7048 13.888 31.9128 14.16H31.9368L31.9608 4.296C31.9608 3.944 31.9688 3.608 31.9848 3.288C32.0008 2.952 32.0168 2.664 32.0328 2.424C31.7448 2.44 31.4408 2.456 31.1208 2.472C30.8008 2.488 30.5208 2.504 30.2808 2.52V1.2H35.0328V2.256C34.5208 2.272 34.1448 2.384 33.9048 2.592C33.6808 2.784 33.5368 3.072 33.4728 3.456C33.4248 3.824 33.4008 4.312 33.4008 4.92L33.3768 18.336H31.9128ZM41.0718 18V16.944C41.5998 16.912 41.9758 16.8 42.1998 16.608C42.4238 16.416 42.5678 16.128 42.6318 15.744C42.6958 15.344 42.7278 14.856 42.7278 14.28L42.7518 11.76L38.4798 5.04C38.1438 4.48 37.8718 3.984 37.6638 3.552C37.4718 3.12 37.3598 2.76 37.3278 2.472C37.0718 2.488 36.8318 2.496 36.6078 2.496C36.3838 2.496 36.1598 2.504 35.9358 2.52V1.2H42.4158V2.256C41.7758 2.24 41.3038 2.328 40.9998 2.52C40.7118 2.712 40.5838 2.992 40.6158 3.36C40.6478 3.712 40.8078 4.128 41.0958 4.608L42.9918 7.632C43.1198 7.824 43.2638 8.048 43.4238 8.304C43.5838 8.56 43.7438 8.824 43.9038 9.096C44.0798 9.352 44.2398 9.616 44.3838 9.888H44.4318C44.5758 9.584 44.7358 9.264 44.9118 8.928C45.1038 8.576 45.2958 8.192 45.4878 7.776L47.2638 4.392C47.3438 4.232 47.4478 4.032 47.5758 3.792C47.7038 3.552 47.8398 3.312 47.9838 3.072C48.1438 2.816 48.3038 2.608 48.4638 2.448C48.1758 2.464 47.8558 2.48 47.5038 2.496C47.1678 2.496 46.8638 2.504 46.5918 2.52V1.2H51.6078V2.256C50.9038 2.32 50.3118 2.584 49.8318 3.048C49.3678 3.496 48.8718 4.208 48.3438 5.184C47.8158 6.192 47.2958 7.184 46.7838 8.16C46.2718 9.12 45.7758 10.064 45.2958 10.992C45.2958 11.248 45.2878 11.576 45.2718 11.976C45.2718 12.376 45.2718 12.776 45.2718 13.176C45.2718 13.576 45.2718 13.928 45.2718 14.232C45.2718 14.52 45.2718 14.704 45.2718 14.784C45.2718 15.216 45.2638 15.608 45.2478 15.96C45.2478 16.296 45.2318 16.568 45.1998 16.776C45.5198 16.744 45.8558 16.728 46.2078 16.728C46.5758 16.712 46.8958 16.696 47.1678 16.68V18H41.0718ZM52.4019 18V16.944C53.0579 16.8 53.6099 16.496 54.0579 16.032C54.5059 15.568 55.0099 14.944 55.5699 14.16L58.5939 9.96C57.6339 8.648 56.8419 7.568 56.2179 6.72C55.5939 5.856 55.0499 5.128 54.5859 4.536C54.2979 4.104 54.0659 3.736 53.8899 3.432C53.7299 3.112 53.5859 2.792 53.4579 2.472C53.2339 2.488 53.0179 2.496 52.8099 2.496C52.6019 2.496 52.3939 2.504 52.1859 2.52V1.2H58.7619V2.256L57.9699 2.28C57.4259 2.296 57.0819 2.4 56.9379 2.592C56.7939 2.768 56.7699 2.992 56.8659 3.264C56.9779 3.536 57.1379 3.824 57.3459 4.128C57.6499 4.592 58.0419 5.152 58.5219 5.808C59.0019 6.464 59.5059 7.16 60.0339 7.896L62.1699 4.824C62.5699 4.296 62.9219 3.824 63.2259 3.408C63.5459 2.976 63.8259 2.648 64.0659 2.424C63.7619 2.44 63.4339 2.456 63.0819 2.472C62.7299 2.488 62.4099 2.504 62.1219 2.52V1.2H67.0899V2.256C66.6259 2.32 66.1859 2.504 65.7699 2.808C65.3539 3.112 64.9539 3.488 64.5699 3.936C64.2019 4.384 63.8339 4.864 63.4659 5.376L60.8739 9C61.4339 9.72 61.9779 10.432 62.5059 11.136C63.0499 11.824 63.5539 12.472 64.0179 13.08C64.4819 13.688 64.8739 14.208 65.1939 14.64C65.4659 14.992 65.7299 15.344 65.9859 15.696C66.2579 16.048 66.5059 16.392 66.7299 16.728C66.9699 16.712 67.1859 16.704 67.3779 16.704C67.5699 16.704 67.7699 16.696 67.9779 16.68V18H61.6659V16.944C62.2739 16.96 62.6739 16.88 62.8659 16.704C63.0579 16.528 63.1139 16.312 63.0339 16.056C62.9539 15.784 62.8099 15.512 62.6019 15.24C62.2179 14.728 61.7459 14.128 61.1859 13.44C60.6419 12.736 60.0579 11.952 59.4339 11.088C59.0499 11.632 58.6659 12.184 58.2819 12.744C57.9139 13.288 57.5379 13.848 57.1539 14.424C56.8499 14.856 56.5619 15.264 56.2899 15.648C56.0179 16.032 55.7219 16.408 55.4019 16.776C55.7059 16.76 56.0259 16.744 56.3619 16.728C56.6979 16.712 57.0099 16.696 57.2979 16.68V18H52.4019ZM75.4829 18V16.944C76.0109 16.912 76.3869 16.8 76.6109 16.608C76.8509 16.416 77.0029 16.128 77.0669 15.744C77.1309 15.36 77.1629 14.872 77.1629 14.28V4.296C77.1629 3.944 77.1709 3.608 77.1869 3.288C77.2029 2.952 77.2189 2.664 77.2349 2.424C76.9629 2.44 76.6669 2.456 76.3469 2.472C76.0269 2.488 75.7389 2.504 75.4829 2.52V1.2H81.3869V2.256C80.8749 2.272 80.4989 2.384 80.2589 2.592C80.0189 2.784 79.8669 3.072 79.8029 3.456C79.7389 3.824 79.7069 4.312 79.7069 4.92V8.832H87.6509V4.296C87.6509 3.944 87.6589 3.608 87.6749 3.288C87.6909 2.952 87.7069 2.664 87.7229 2.424C87.4509 2.44 87.1549 2.456 86.8349 2.472C86.5149 2.488 86.2269 2.504 85.9709 2.52V1.2H91.8749V2.256C91.3629 2.272 90.9869 2.384 90.7469 2.592C90.5069 2.784 90.3549 3.072 90.2909 3.456C90.2269 3.824 90.1949 4.312 90.1949 4.92V14.784C90.1949 15.216 90.1869 15.608 90.1709 15.96C90.1709 16.296 90.1549 16.568 90.1229 16.776C90.3949 16.744 90.6909 16.728 91.0109 16.728C91.3309 16.712 91.6189 16.696 91.8749 16.68V18H85.9709V16.944C86.4989 16.912 86.8749 16.8 87.0989 16.608C87.3389 16.416 87.4909 16.128 87.5549 15.744C87.6189 15.36 87.6509 14.872 87.6509 14.28V10.08L79.7069 10.152V14.784C79.7069 15.216 79.6989 15.608 79.6829 15.96C79.6829 16.296 79.6669 16.568 79.6349 16.776C79.9069 16.744 80.2029 16.728 80.5229 16.728C80.8589 16.712 81.1469 16.696 81.3869 16.68V18H75.4829ZM102.418 18.384C100.898 18.384 99.5941 18.128 98.5061 17.616C97.4341 17.104 96.5621 16.424 95.8901 15.576C95.2181 14.712 94.7221 13.76 94.4021 12.72C94.0821 11.68 93.9221 10.64 93.9221 9.6C93.9221 8.592 94.0901 7.576 94.4261 6.552C94.7781 5.512 95.2981 4.56 95.9861 3.696C96.6901 2.832 97.5621 2.136 98.6021 1.608C99.6581 1.08 100.89 0.816 102.298 0.816C103.77 0.816 105.034 1.08 106.09 1.608C107.162 2.136 108.042 2.84 108.73 3.72C109.418 4.584 109.93 5.528 110.266 6.552C110.618 7.576 110.794 8.592 110.794 9.6C110.794 10.592 110.618 11.608 110.266 12.648C109.93 13.672 109.41 14.624 108.706 15.504C108.018 16.368 107.154 17.064 106.114 17.592C105.074 18.12 103.842 18.384 102.418 18.384ZM102.538 17.136C103.466 17.136 104.266 16.928 104.938 16.512C105.626 16.096 106.186 15.544 106.618 14.856C107.066 14.152 107.394 13.384 107.602 12.552C107.81 11.704 107.914 10.864 107.914 10.032C107.914 9.008 107.794 8.024 107.554 7.08C107.314 6.12 106.946 5.264 106.45 4.512C105.97 3.744 105.37 3.144 104.65 2.712C103.93 2.264 103.098 2.04 102.154 2.04C101.226 2.04 100.418 2.256 99.7301 2.688C99.0421 3.12 98.4821 3.688 98.0501 4.392C97.6181 5.08 97.2901 5.848 97.0661 6.696C96.8581 7.528 96.7541 8.368 96.7541 9.216C96.7541 10.048 96.8661 10.928 97.0901 11.856C97.3141 12.784 97.6581 13.648 98.1221 14.448C98.5861 15.248 99.1781 15.896 99.8981 16.392C100.634 16.888 101.514 17.136 102.538 17.136ZM125.394 6.384C125.378 5.472 125.274 4.712 125.082 4.104C124.89 3.496 124.57 3.04 124.122 2.736C123.69 2.432 123.09 2.288 122.322 2.304H120.594L120.57 14.784C120.57 15.216 120.562 15.608 120.546 15.96C120.546 16.296 120.53 16.568 120.498 16.776C120.802 16.744 121.13 16.728 121.482 16.728C121.85 16.712 122.178 16.696 122.466 16.68V18H116.37V16.944C116.898 16.912 117.274 16.8 117.498 16.608C117.722 16.416 117.866 16.128 117.93 15.744C117.994 15.344 118.026 14.856 118.026 14.28V2.328L116.01 2.352C115.034 2.352 114.322 2.68 113.874 3.336C113.426 3.992 113.202 5.008 113.202 6.384H112.074L112.218 1.2H126.378L126.522 6.384H125.394ZM136.592 11.928C136.592 11.24 136.488 10.744 136.28 10.44C136.088 10.136 135.792 9.952 135.392 9.888C134.992 9.808 134.496 9.784 133.904 9.816L132.512 9.864V14.856C132.512 15.288 132.504 15.672 132.488 16.008C132.488 16.328 132.472 16.592 132.44 16.8L136.568 16.752C137.192 16.736 137.752 16.624 138.248 16.416C138.744 16.192 139.136 15.816 139.424 15.288C139.712 14.76 139.856 14.04 139.856 13.128H140.912L140.768 18H128.288V16.944C128.816 16.912 129.192 16.8 129.416 16.608C129.656 16.416 129.808 16.128 129.872 15.744C129.936 15.36 129.968 14.872 129.968 14.28V4.296C129.968 3.944 129.976 3.608 129.992 3.288C130.008 2.952 130.024 2.664 130.04 2.424C129.768 2.44 129.472 2.456 129.152 2.472C128.832 2.488 128.544 2.504 128.288 2.52V1.2H140L140.12 5.544H139.064C139.064 4.632 138.912 3.936 138.608 3.456C138.32 2.976 137.936 2.656 137.456 2.496C136.992 2.336 136.488 2.264 135.944 2.28L134.264 2.328C133.768 2.328 133.392 2.416 133.136 2.592C132.88 2.752 132.712 3.024 132.632 3.408C132.552 3.776 132.512 4.28 132.512 4.92V8.688H136.472L136.328 6.624H137.648V11.928H136.592ZM143.241 18V16.944C143.769 16.912 144.145 16.8 144.369 16.608C144.609 16.416 144.761 16.128 144.825 15.744C144.889 15.36 144.921 14.872 144.921 14.28V4.296C144.921 3.944 144.929 3.608 144.945 3.288C144.961 2.952 144.977 2.664 144.993 2.424C144.721 2.44 144.425 2.456 144.105 2.472C143.785 2.488 143.497 2.504 143.241 2.52V1.2H149.145V2.256C148.633 2.272 148.257 2.384 148.017 2.592C147.777 2.784 147.625 3.072 147.561 3.456C147.497 3.824 147.465 4.312 147.465 4.92V14.856C147.465 15.288 147.457 15.672 147.441 16.008C147.441 16.328 147.425 16.592 147.393 16.8L151.449 16.752C152.441 16.736 153.201 16.416 153.729 15.792C154.257 15.152 154.521 14.144 154.521 12.768H155.601L155.457 18H143.241Z" fill="#F2FDFF"/>
</svg>
